<svg xmlns="http://www.w3.org/2000/svg" viewBox="0 0 492.719 492.719">
  <path fill-rule="evenodd" clip-rule="evenodd"
    d="M440 33.375C440 22.681 431.308 14 420.6 14H71.4C60.6922 14 52 22.6809 52 33.375V459.625C52 470.319 60.6921 479 71.4 479H420.6C431.308 479 440 470.319 440 459.625V33.375ZM362.4 52.75H401.2V440.25H362.4V52.75ZM284.8 52.75V198.062C284.8 204.901 281.193 211.239 275.293 214.724C269.397 218.213 262.103 218.349 256.086 215.053L207.2 188.355L158.314 215.053C152.297 218.349 145.003 218.213 139.107 214.724C133.208 211.239 129.6 204.9 129.6 198.062V52.75H90.8004V440.25H323.6V52.75H284.8ZM246 165.377L216.514 149.275C210.713 146.116 203.688 146.116 197.887 149.275L168.401 165.377V52.75H246.001L246 165.377Z"
    fill="black" />
</svg>